<?xml version="1.0" encoding="utf-8" ?>
<svg xmlns="http://www.w3.org/2000/svg" width="40" height="40">
    <path fill="#1C001F" transform="scale(0.0390625 0.0390625)"
          d="M870.407 0L1004.74 78.5705L780.74 208.841L780.738 208.996L1004.74 78.5705L1004.74 171.937L703.955 909.512L511.908 1020.38L511.908 1020.4L511.896 1020.39L511.887 1020.4L511.885 1020.38L321.689 910.363L19.2481 174.828L19.2481 78.5705L153.6 0L377.768 131.461L377.001 131.9L377.598 132.141L377.598 220.916L511.908 535.027L511.908 639.969L511.929 639.958L511.929 535.027L646.409 220.916L646.409 131.291L646.579 131.291L870.407 0ZM294.8 179.192L243.267 208.841L243.265 208.996L294.8 179.192Z"/>
    <path fill="#524C4C" transform="scale(0.0390625 0.0390625)"
          d="M870.407 1.88811e-14L646.579 131.291L646.409 131.291L646.409 220.916L511.929 535.027L511.929 639.958L422.432 691.998L243.267 287.922L243.267 208.841L377.768 131.461L153.6 0L19.2481 78.5705L19.2481 174.828L321.689 910.363L511.908 1020.4L511.908 744.038L601.575 691.998L600.385 691.318L780.74 287.922L780.74 208.841L1004.74 78.5705L870.407 1.88811e-14Z"/>
</svg>
