<svg width="37" height="36" viewBox="0 0 37 36" fill="none" xmlns="http://www.w3.org/2000/svg">
<path d="M18.15 35.65C16.4167 35.65 14.8833 35.25 13.55 34.45C12.25 33.6167 11.3167 32.4167 10.75 30.85L0 -2.38419e-06H9.65L17.55 26.5C17.6167 26.7 17.7 26.85 17.8 26.95C17.9 27.0167 18.0167 27.05 18.15 27.05C18.3167 27.05 18.45 27.0167 18.55 26.95C18.65 26.85 18.7333 26.7 18.8 26.5L26.75 -2.38419e-06H36.3L25.6 30.85C25.0667 32.3833 24.1333 33.5667 22.8 34.4C21.4667 35.2333 19.9167 35.65 18.15 35.65Z" fill="black"/>
</svg>
