<svg width="14" height="14" viewBox="0 0 14 14" fill="none" xmlns="http://www.w3.org/2000/svg">
<path d="M6.534 13.234C5.91 13.234 5.358 13.09 4.878 12.802C4.41 12.502 4.074 12.07 3.87 11.506L0 0.399999H3.474L6.318 9.94C6.342 10.012 6.372 10.066 6.408 10.102C6.444 10.126 6.486 10.138 6.534 10.138C6.594 10.138 6.642 10.126 6.678 10.102C6.714 10.066 6.744 10.012 6.768 9.94L9.63 0.399999H13.068L9.216 11.506C9.024 12.058 8.688 12.484 8.208 12.784C7.728 13.084 7.17 13.234 6.534 13.234Z" fill="black"/>
</svg>
